<?xml version="1.0" encoding="UTF-8" standalone="no"?>
<svg
   xmlns:dc="http://purl.org/dc/elements/1.1/"
   xmlns:cc="http://creativecommons.org/ns#"
   xmlns:rdf="http://www.w3.org/1999/02/22-rdf-syntax-ns#"
   xmlns:svg="http://www.w3.org/2000/svg"
   xmlns="http://www.w3.org/2000/svg"
   viewBox="0 0 217.925 160.1875"
   height="160.1875"
   width="217.925"
   xml:space="preserve"
   version="1.1"
   id="svg2"><metadata
     id="metadata8"><rdf:RDF><cc:Work
         rdf:about=""><dc:format>image/svg+xml</dc:format><dc:type
           rdf:resource="http://purl.org/dc/dcmitype/StillImage" /></cc:Work></rdf:RDF></metadata><defs
     id="defs6" /><g
     transform="matrix(1.25,0,0,-1.25,0,160.1875)"
     id="g10"><g
       transform="scale(0.1,0.1)"
       id="g12"><path
         id="path14"
         style="fill:#6e7780;fill-opacity:1;fill-rule:nonzero;stroke:none"
         d="M 100.027,224.328 98.1641,222.48 C 85.918,210.422 75.0898,205.488 60.7891,205.488 c -25.5391,0 -45.5352,21.383 -45.5352,48.961 0,27.555 19.5039,48.336 45.3828,48.336 17.625,0 28.3867,-8.105 36.5742,-16.035 l 1.9219,-1.855 9.8322,10.078 -2.039,1.875 c -10.7385,9.843 -23.7619,18.945 -46.1369,18.945 -33.4805,0 -59.69926,-27.082 -59.69926,-61.961 0,-34.973 25.53126,-61.352 59.37496,-61.352 23.129,0 36.8282,10.442 47.1802,20.661 l 1.949,1.929 -9.567,9.258" /><path
         id="path16"
         style="fill:#6e7780;fill-opacity:1;fill-rule:nonzero;stroke:none"
         d="m 213.746,207.629 -73.469,0 0,40.422 65.328,0 0,13.148 -65.328,0 0,39.465 72.661,0 0,13.176 -86.489,0 0,-119.41 87.297,0 0,13.199" /><path
         id="path18"
         style="fill:#6e7780;fill-opacity:1;fill-rule:nonzero;stroke:none"
         d="m 325.508,194.43 10.328,0 0,119.41 -13.5,0 0,-94.199 -74.715,94.199 -11.961,0 0,-119.41 13.512,0 0,96.324 75.531,-95.313 0.805,-1.011" /><path
         id="path20"
         style="fill:#6e7780;fill-opacity:1;fill-rule:nonzero;stroke:none"
         d="m 396.039,194.43 13.84,0 0,106.234 39.754,0 0,13.176 -93.348,0 0,-13.176 39.754,0 0,-106.234" /><path
         id="path22"
         style="fill:#6e7780;fill-opacity:1;fill-rule:nonzero;stroke:none"
         d="m 557.371,207.629 -73.476,0 0,40.422 65.328,0 0,13.148 -65.328,0 0,39.465 72.671,0 0,13.176 -86.5,0 0,-119.41 87.305,0 0,13.199" /><path
         id="path24"
         style="fill:#6e7780;fill-opacity:1;fill-rule:nonzero;stroke:none"
         d="m 593.113,300.664 36.246,0 c 18.84,0 30.079,-8.32 30.079,-22.574 0,-14.199 -11.997,-23.379 -30.547,-23.379 l -35.778,0 0,45.953 z m 87.168,-106.234 -38.23,49.511 c 19.648,4.11 31.226,16.75 31.226,34.797 0,20.989 -17.441,35.102 -43.414,35.102 l -50.578,0 0,-119.41 13.828,0 0,47.242 33.317,0 36.328,-47.242 17.523,0" /><path
         id="path26"
         style="fill:#6e7780;fill-opacity:1;fill-rule:nonzero;stroke:none"
         d="m 746.039,194.43 13.84,0 0,51.648 64.508,0 0,13.203 -64.508,0 0,41.383 71.84,0 0,13.176 -85.68,0 0,-119.41" /><path
         id="path28"
         style="fill:#6e7780;fill-opacity:1;fill-rule:nonzero;stroke:none"
         d="m 904.855,205.488 c -25.824,0 -46.039,21.383 -46.039,48.961 0,27.555 19.653,48.336 45.704,48.336 25.812,0 46.039,-21.363 46.039,-48.953 0,-27.551 -19.661,-48.344 -45.704,-48.344 z m 59.989,48.762 -0.117,1.359 -0.032,0.02 c -0.562,34.383 -26.101,60.164 -59.84,60.164 -37.687,0 -60.199,-31.348 -60.199,-61.961 0,-34.973 25.735,-61.352 59.864,-61.352 33.371,0 59.582,26.469 60.175,60.469 l 0.149,1.301" /><path
         id="path30"
         style="fill:#6e7780;fill-opacity:1;fill-rule:nonzero;stroke:none"
         d="m 1002.1,300.664 36.25,0 c 18.84,0 30.08,-8.32 30.08,-22.574 0,-14.199 -11.99,-23.379 -30.56,-23.379 l -35.77,0 0,45.953 z m 0,-58.992 33.31,0 36.33,-47.242 17.52,0 -38.23,49.511 c 19.64,4.11 31.23,16.75 31.23,34.797 0,20.989 -17.45,35.102 -43.42,35.102 l -50.586,0 0,-119.41 13.846,0 0,47.242" /><path
         id="path32"
         style="fill:#6e7780;fill-opacity:1;fill-rule:nonzero;stroke:none"
         d="m 1202.67,192.629 c 30.49,0 49.43,20.262 49.43,52.859 l 0,68.352 -13.83,0 0,-69.32 c 0,-25.059 -12.52,-38.86 -35.27,-38.86 -22.84,0 -35.94,14.461 -35.94,39.66 l 0,68.52 -13.84,0 0,-69.32 c 0,-32.008 18.96,-51.891 49.45,-51.891" /><path
         id="path34"
         style="fill:#6e7780;fill-opacity:1;fill-rule:nonzero;stroke:none"
         d="m 1292.74,300.664 36.26,0 c 18.83,0 30.07,-8.32 30.07,-22.574 0,-14.199 -11.99,-23.379 -30.55,-23.379 l -35.78,0 0,45.953 z m 87.17,-106.234 -38.24,49.511 c 19.65,4.11 31.24,16.75 31.24,34.797 0,20.989 -17.45,35.102 -43.43,35.102 l -50.57,0 0,-119.41 13.83,0 0,47.242 33.32,0 36.32,-47.242 17.53,0" /><path
         id="path36"
         style="fill:#6e7780;fill-opacity:1;fill-rule:nonzero;stroke:none"
         d="m 1410.6,261.199 0,39.465 35.77,0 c 16.17,0 25.83,-6.863 25.83,-18.672 0,-15.32 -13.77,-20.793 -26.64,-20.793 l -34.96,0 z m 38.7,-53.57 -38.7,0 0,40.422 35.92,0 c 11.97,0 32.02,-2.563 32.02,-19.832 0,-12.688 -11.21,-20.59 -29.24,-20.59 z m 43.24,20.93 c 0,12.91 -7.34,22.402 -21.32,27.742 9.71,5.91 14.97,15.168 14.97,26.836 0,18.367 -15.95,30.703 -39.67,30.703 l -49.75,0 0,-119.41 52.2,0 c 26.46,0 43.57,13.269 43.57,34.129" /><path
         id="path38"
         style="fill:#6e7780;fill-opacity:1;fill-rule:nonzero;stroke:none"
         d="m 1538.41,239.398 25.97,56.813 25.82,-56.813 -51.79,0 z m -6.04,-13.039 63.83,0 14.51,-31.929 15.22,0 -54.89,118.668 -0.71,1.562 -11.59,0 -55.58,-120.23 14.72,0 14.49,31.929" /><path
         id="path40"
         style="fill:#6e7780;fill-opacity:1;fill-rule:nonzero;stroke:none"
         d="m 1729.9,313.84 0,-94.199 -74.71,94.199 -11.97,0 0,-119.41 13.51,0 0,96.324 75.55,-95.313 0.8,-1.011 10.33,0 0,119.41 -13.51,0" /><path
         id="path42"
         style="fill:#6e7780;fill-opacity:1;fill-rule:nonzero;stroke:none"
         d="m 50.5781,68.5195 c -26.1406,5.3594 -31.0976,11.961 -31.0976,22.6407 0,10.8988 10.5976,18.8088 25.1757,18.8088 12.5626,0 22.5196,-3.77 32.2969,-12.2073 l 2.0938,-1.8008 8.8125,10.8981 -2.0977,1.7 C 73.0117,118.801 61.1953,122.988 44.9883,122.988 22.5625,122.988 5.64453,108.949 5.64453,90.0117 5.64453,71.1914 17.4102,61.1406 46.25,55.2891 71.5469,50.1914 76.3477,43.75 76.3477,33.3086 c 0,-11.75 -10.7539,-19.957 -26.1368,-19.957 -15.4297,0 -26.3867,4.5468 -39.0898,16.207 L 9.10156,31.4297 0,21.0391 1.98047,19.2812 C 16.6367,6.16016 31.3633,0.320312 49.7188,0.320312 c 23.8203,0 40.4648,13.910188 40.4648,34.140588 0,17.9805 -12.2148,28.5 -39.6055,34.0586" /><path
         id="path44"
         style="fill:#6e7780;fill-opacity:1;fill-rule:nonzero;stroke:none"
         d="M 204.766,30.0117 C 192.52,17.9414 181.688,13.0195 167.387,13.0195 c -25.535,0 -45.535,21.3711 -45.535,48.9805 0,27.5508 19.503,48.309 45.371,48.309 17.632,0 28.386,-8.098 36.582,-16.0473 l 1.914,-1.8711 9.828,10.1094 -2.031,1.871 c -10.727,9.84 -23.743,18.949 -46.129,18.949 -33.465,0 -59.688,-27.0895 -59.688,-61.988 0,-34.9726 25.52,-61.332 59.367,-61.332 23.137,0 36.829,10.4414 47.172,20.6719 l 1.95,1.9179 -9.547,9.2618 -1.875,-1.8399" /><path
         id="path46"
         style="fill:#6e7780;fill-opacity:1;fill-rule:nonzero;stroke:none"
         d="m 234.172,1.94922 13.8359,0 0,119.43 -13.8359,0 0,-119.43 z" /><path
         id="path48"
         style="fill:#6e7780;fill-opacity:1;fill-rule:nonzero;stroke:none"
         d="m 291.523,55.5508 65.317,0 0,13.1875 -65.317,0 0,39.4337 72.653,0 0,13.207 -86.488,0 0,-119.42978 87.3,0 0,13.19918 -73.465,0 0,40.4024" /><path
         id="path50"
         style="fill:#6e7780;fill-opacity:1;fill-rule:nonzero;stroke:none"
         d="m 473.559,27.1602 -73.895,93.2108 -0.809,1.008 -11.96,0 0,-119.42978 13.515,0 0,96.31248 75.52,-95.28123 0.804,-1.03125 10.336,0 0,119.42978 -13.511,0 0,-94.2188" /><path
         id="path52"
         style="fill:#6e7780;fill-opacity:1;fill-rule:nonzero;stroke:none"
         d="M 607.688,30.0117 C 595.445,17.9414 584.609,13.0195 570.312,13.0195 c -25.542,0 -45.546,21.3711 -45.546,48.9805 0,27.5508 19.504,48.309 45.375,48.309 17.632,0 28.394,-8.098 36.582,-16.0473 l 1.922,-1.8711 9.824,10.1094 -2.031,1.871 c -10.731,9.84 -23.743,18.949 -46.126,18.949 -33.48,0 -59.703,-27.0895 -59.703,-61.988 C 510.609,26.3594 536.145,0 569.984,0 c 23.121,0 36.825,10.4414 47.172,20.6719 l 1.949,1.9179 -9.539,9.2618 -1.878,-1.8399" /><path
         id="path54"
         style="fill:#6e7780;fill-opacity:1;fill-rule:nonzero;stroke:none"
         d="m 649.789,55.5508 65.316,0 0,13.1875 -65.316,0 0,39.4337 72.656,0 0,13.207 -86.492,0 0,-119.42978 87.305,0 0,13.19918 -73.469,0 0,40.4024" /><path
         id="path56"
         style="fill:#6e7780;fill-opacity:1;fill-rule:nonzero;stroke:none"
         d="m 784.707,93.0703 -11.305,0 0,-25.5391 -25.781,0 0,-11.0624 25.781,0 0,-25.5586 11.305,0 0,25.5586 25.777,0 0,11.0624 -25.777,0 0,25.5391" /><path
         id="path58"
         style="fill:#6e7780;fill-opacity:1;fill-rule:nonzero;stroke:none"
         d="m 882.258,108.172 c 20.23,0 31.844,-9.0509 31.844,-25.1837 0,-15.3789 -12.891,-25.3281 -32.825,-25.3281 l -28.589,0 0,50.5118 29.57,0 z m 0.64,13.207 -44.058,0 0,-119.42978 13.848,0 0,42.53128 28.105,0 c 23.465,0 47.156,12.0703 47.156,39.3515 0,22.809 -17.683,37.547 -45.051,37.547" /><path
         id="path60"
         style="fill:#6e7780;fill-opacity:1;fill-rule:nonzero;stroke:none"
         d="m 961.562,108.172 36.258,0 c 18.81,0 30.05,-8.3204 30.05,-22.5626 0,-14.1992 -11.98,-23.3789 -30.534,-23.3789 l -35.774,0 0,45.9415 z m 80.158,-21.9103 c 0,21.0003 -17.45,35.1173 -43.419,35.1173 l -50.574,0 0,-119.42978 13.835,0 0,47.26958 33.301,0 36.327,-47.26958 17.53,0 -38.23,49.53908 c 19.65,4.082 31.23,16.75 31.23,34.7734" /><path
         id="path62"
         style="fill:#6e7780;fill-opacity:1;fill-rule:nonzero;stroke:none"
         d="m 1120.71,13.0195 c -25.82,0 -46.03,21.3711 -46.03,48.9805 0,27.5508 19.65,48.309 45.71,48.309 25.8,0 46.03,-21.3676 46.03,-48.977 0,-27.5508 -19.66,-48.3125 -45.71,-48.3125 z m 0,110.3005 c -37.67,0 -60.18,-31.3395 -60.18,-61.988 0,-34.9726 25.73,-61.332 59.86,-61.332 33.43,0 59.69,26.5703 60.18,60.6719 l 1.12,1.3281 -1.12,1.1094 c -0.55,34.4218 -26.1,60.2106 -59.86,60.2106" /><path
         id="path64"
         style="fill:#6e7780;fill-opacity:1;fill-rule:nonzero;stroke:none"
         d="m 1254.94,53.2812 38.13,0 0,-28.7929 c -7.26,-5.7578 -19.6,-11.6172 -33.67,-11.6172 -27.62,0 -46.18,19.6094 -46.18,49.1289 0,27.0898 19.5,48.309 44.41,48.309 17.51,0 27.12,-6.27 34.89,-13.0278 l 2.02,-1.7812 9.09,10.48 -2.12,1.758 c -13.38,11.063 -25.96,15.582 -43.4,15.582 -36.96,0 -59.06,-31.3395 -59.06,-61.988 0,-36.1015 24.7,-61.332 60.04,-61.332 16.91,0 33.88,6.5 46.57,17.7891 l 0.9,0.8125 0,47.8593 -51.62,0 0,-13.1797" /><path
         id="path66"
         style="fill:#6e7780;fill-opacity:1;fill-rule:nonzero;stroke:none"
         d="m 1345.74,108.172 36.25,0 c 18.82,0 30.06,-8.3204 30.06,-22.5626 0,-14.1992 -11.99,-23.3789 -30.56,-23.3789 l -35.75,0 0,45.9415 z m 80.14,-21.9103 c 0,21.0003 -17.44,35.1173 -43.4,35.1173 l -50.58,0 0,-119.42978 13.84,0 0,47.26958 33.3,0 36.32,-47.26958 17.54,0 -38.24,49.53908 c 19.65,4.082 31.22,16.75 31.22,34.7734" /><path
         id="path68"
         style="fill:#6e7780;fill-opacity:1;fill-rule:nonzero;stroke:none"
         d="m 1463.58,55.5508 65.32,0 0,13.1875 -65.32,0 0,39.4337 72.66,0 0,13.207 -86.5,0 0,-119.42978 87.31,0 0,13.19918 -73.47,0 0,40.4024" /><path
         id="path70"
         style="fill:#6e7780;fill-opacity:1;fill-rule:nonzero;stroke:none"
         d="m 1601.1,68.5195 c -26.13,5.3594 -31.08,11.961 -31.08,22.6407 0,10.8988 10.59,18.8088 25.17,18.8088 12.55,0 22.52,-3.77 32.31,-12.2073 l 2.09,-1.8008 8.8,10.8981 -2.09,1.7 c -12.76,10.242 -24.57,14.429 -40.77,14.429 -22.43,0 -39.34,-14.039 -39.34,-32.9763 0,-18.8203 11.76,-28.8711 40.59,-34.7226 25.3,-5.0977 30.1,-11.5391 30.1,-21.9805 0,-11.75 -10.75,-19.957 -26.14,-19.957 -15.44,0 -26.38,4.5468 -39.07,16.207 l -2.01,1.8711 -9.13,-10.3906 1.98,-1.7579 c 14.66,-13.12104 29.38,-18.960888 47.73,-18.960888 23.84,0 40.48,13.910188 40.48,34.140588 0,17.9805 -12.2,28.5 -39.62,34.0586" /><path
         id="path72"
         style="fill:#6e7780;fill-opacity:1;fill-rule:nonzero;stroke:none"
         d="m 1703.8,68.5195 c -26.13,5.3594 -31.09,11.961 -31.09,22.6407 0,10.8988 10.59,18.8088 25.17,18.8088 12.56,0 22.52,-3.77 32.3,-12.2073 l 2.1,-1.8008 8.8,10.8981 -2.1,1.7 c -12.74,10.242 -24.56,14.429 -40.78,14.429 -22.42,0 -39.33,-14.039 -39.33,-32.9763 0,-18.8203 11.76,-28.8711 40.59,-34.7226 25.33,-5.0977 30.12,-11.5391 30.12,-21.9805 0,-11.75 -10.76,-19.957 -26.17,-19.957 -15.43,0 -26.38,4.5468 -39.06,16.207 l -2.03,1.8711 -9.08,-10.3906 1.97,-1.7579 c 14.65,-13.12104 29.37,-18.960888 47.72,-18.960888 23.84,0 40.48,13.910188 40.48,34.140588 0,17.9805 -12.22,28.5 -39.61,34.0586" /><path
         id="path74"
         style="fill:#6397d7;fill-opacity:1;fill-rule:nonzero;stroke:none"
         d="m 1214.37,903.48 75.168,0 0,225.508 -75.168,0 0,-225.508 z" /><path
         id="path76"
         style="fill:#6397d7;fill-opacity:1;fill-rule:nonzero;stroke:none"
         d="m 911.523,1053.84 378.016,0 0,75.1484 -378.016,0 0,-75.1484 z" /><path
         id="path78"
         style="fill:#6397d7;fill-opacity:1;fill-rule:nonzero;stroke:none"
         d="m 911.523,903.48 378.016,0 0,75.1719 -378.016,0 0,-75.1719 z" /><path
         id="path80"
         style="fill:#6397d7;fill-opacity:1;fill-rule:nonzero;stroke:none"
         d="m 911.523,1053.84 75.1875,0 0,225.508 -75.1875,0 0,-225.508 z" /><path
         id="path82"
         style="fill:#6397d7;fill-opacity:1;fill-rule:nonzero;stroke:none"
         d="m 911.523,1204.18 378.016,0 0,75.1875 -378.016,0 0,-75.1875 z" /><path
         id="path84"
         style="fill:#96d66f;fill-opacity:1;fill-rule:nonzero;stroke:none"
         d="m 1668.23,1055.97 75.1797,0 0,225.508 -75.1797,0 0,-225.508 z" /><path
         id="path86"
         style="fill:#96d66f;fill-opacity:1;fill-rule:nonzero;stroke:none"
         d="m 1365.39,1055.94 378.02,0 0,75.1719 -378.02,0 0,-75.1719 z" /><path
         id="path88"
         style="fill:#96d66f;fill-opacity:1;fill-rule:nonzero;stroke:none"
         d="m 1365.39,903.48 75.1797,0 0,378 -75.1797,0 0,-378 z" /><path
         id="path90"
         style="fill:#96d66f;fill-opacity:1;fill-rule:nonzero;stroke:none"
         d="m 1365.39,1206.32 378.02,0 0,75.1602 -378.02,0 0,-75.1602 z" /><path
         id="path92"
         style="fill:#f7904d;fill-opacity:1;fill-rule:nonzero;stroke:none"
         d="m 3.76953,903.48 378.023,0 0,75.1719 -378.023,0 0,-75.1719 z" /><path
         id="path94"
         style="fill:#f7904d;fill-opacity:1;fill-rule:nonzero;stroke:none"
         d="m 3.76953,1206.33 378.023,0 0,75.1719 -378.023,0 0,-75.1719 z" /><path
         id="path96"
         style="fill:#f7904d;fill-opacity:1;fill-rule:nonzero;stroke:none"
         d="m 3.76953,903.48 75.1758,0 0,378.02 -75.1758,0 0,-378.02 z" /><path
         id="path98"
         style="fill:#f47126;fill-opacity:1;fill-rule:nonzero;stroke:none"
         d="m 3.76953,1206.33 75.1758,0 0,75.1719 -75.1758,0 0,-75.1719 z" /><path
         id="path100"
         style="fill:#f47126;fill-opacity:1;fill-rule:nonzero;stroke:none"
         d="m 3.76953,903.48 75.1758,0 0,75.1719 -75.1758,0 0,-75.1719 z" /><path
         id="path102"
         style="fill:#9c9983;fill-opacity:1;fill-rule:nonzero;stroke:none"
         d="m 760.445,903.438 75.1602,0 0,378.043 -75.1602,0 0,-378.043 z" /><path
         id="path104"
         style="fill:#9c9983;fill-opacity:1;fill-rule:nonzero;stroke:none"
         d="m 457.594,903.438 75.1758,0 0,378.043 -75.1758,0 0,-378.043 z" /><path
         id="path106"
         style="fill:#9c9983;fill-opacity:1;fill-rule:nonzero;stroke:none"
         d="m 457.594,903.438 378.012,0 0,75.1875 -378.012,0 0,-75.1875 z" /><path
         id="path108"
         style="fill:#7a7761;fill-opacity:1;fill-rule:nonzero;stroke:none"
         d="m 457.594,903.438 75.1758,0 0,75.1875 -75.1758,0 0,-75.1875 z" /><path
         id="path110"
         style="fill:#7a7761;fill-opacity:1;fill-rule:nonzero;stroke:none"
         d="m 760.445,903.438 75.1602,0 0,75.1875 -75.1602,0 0,-75.1875 z" /><path
         id="path112"
         style="fill:#3580cb;fill-opacity:1;fill-rule:nonzero;stroke:none"
         d="m 911.523,1204.18 75.1875,0 0,75.1875 -75.1875,0 0,-75.1875 z" /><path
         id="path114"
         style="fill:#3580cb;fill-opacity:1;fill-rule:nonzero;stroke:none"
         d="m 1214.37,1053.84 75.168,0 0,75.1484 -75.168,0 0,-75.1484 z" /><path
         id="path116"
         style="fill:#3580cb;fill-opacity:1;fill-rule:nonzero;stroke:none"
         d="m 911.523,1053.84 75.1875,0 0,75.1484 -75.1875,0 0,-75.1484 z" /><path
         id="path118"
         style="fill:#3580cb;fill-opacity:1;fill-rule:nonzero;stroke:none"
         d="m 1214.37,903.48 75.168,0 0,75.1719 -75.168,0 0,-75.1719 z" /><path
         id="path120"
         style="fill:#73ca4a;fill-opacity:1;fill-rule:nonzero;stroke:none"
         d="m 1668.23,1206.32 75.1797,0 0,75.1602 -75.1797,0 0,-75.1602 z" /><path
         id="path122"
         style="fill:#73ca4a;fill-opacity:1;fill-rule:nonzero;stroke:none"
         d="m 1365.39,1206.32 75.1797,0 0,75.1602 -75.1797,0 0,-75.1602 z" /><path
         id="path124"
         style="fill:#73ca4a;fill-opacity:1;fill-rule:nonzero;stroke:none"
         d="m 1668.23,1055.94 75.1797,0 0,75.1719 -75.1797,0 0,-75.1719 z" /><path
         id="path126"
         style="fill:#73ca4a;fill-opacity:1;fill-rule:nonzero;stroke:none"
         d="m 1365.39,1055.94 75.1797,0 0,75.1719 -75.1797,0 0,-75.1719 z" /><path
         id="path128"
         style="fill:#f47126;fill-opacity:1;fill-rule:nonzero;stroke:none"
         d="m 3.76953,454.348 378.023,0 0,378.027 -378.023,0 0,-378.027 z" /><path
         id="path130"
         style="fill:#7a7761;fill-opacity:1;fill-rule:nonzero;stroke:none"
         d="m 457.594,454.348 378.012,0 0,378.027 -378.012,0 0,-378.027 z" /><path
         id="path132"
         style="fill:#3580cb;fill-opacity:1;fill-rule:nonzero;stroke:none"
         d="m 911.523,454.348 378.016,0 0,378.027 -378.016,0 0,-378.027 z" /><path
         id="path134"
         style="fill:#73ca4a;fill-opacity:1;fill-rule:nonzero;stroke:none"
         d="m 1365.39,454.348 378.02,0 0,378.027 -378.02,0 0,-378.027 z" /></g></g></svg>